<svg width="18" height="20" fill="none" xmlns="http://www.w3.org/2000/svg"><path d="M17.985 7.461c0-1.14-.366-2.21-1.064-3.143.266-.898.332-2.038.266-3.35C17.153.414 16.72 0 16.189 0c-.3 0-2.829.035-4.293 1.382a10.536 10.536 0 0 0-3.892 0C6.573.035 4.044 0 3.712 0c-.533 0-.965.415-.999.967-.1 1.313 0 2.453.267 3.35-.7.968-1.065 2.039-1.065 3.144 0 2.418 1.797 4.594 4.525 5.63-.1.208-.166.45-.233.691-2.895-.31-4.259-3.04-4.325-3.143A.942.942 0 0 0 .55 10.19c-.5.242-.699.864-.433 1.382.067.172 1.897 3.868 5.923 4.283v3.109c0 .587.432 1.036.998 1.036h5.822c.566 0 .998-.45.998-1.036v-4.11c0-.623-.133-1.21-.366-1.728 2.696-1.07 4.492-3.212 4.492-5.665z" fill="#CFCFCF"/></svg>