<svg width="662" height="875" fill="none" xmlns="http://www.w3.org/2000/svg"><g clip-path="url(#a)"><path d="m766.504 80.196 54.935 89.42s-33.107 16.025-79.941 51.744c-39.789 30.479-90.172 88.002-90.172 88.002L558 148.674s41.683-49.358 103.619-90.907c57.269-38.612 69.185-36.162 69.185-36.162l35.7 58.59z" fill="#fff" stroke="#262626" stroke-width="1.223" stroke-miterlimit="10"/><path d="m577.835 127.287 82.282 144.573s27.489-30.357 57.846-56.304c52.382-44.379 92.658-63.213 92.658-63.213L730.479 21.421c.325.184-72.892 18.835-152.644 105.866z" fill="#262626"/><path d="M989.606 104.922s-43.846-33.596-134.702-.467C764.047 137.583 665.378 226.57 665.378 226.57L574.1 68.328S698.652-36.052 782.371-52.41c67.841-13.325 103.356 5.047 103.356 5.047l103.879 152.284z" fill="#fff" stroke="#262626" stroke-width="1.223" stroke-miterlimit="10"/><path d="M969.056 34.736 859.587 266.702l-306.109-38.427" stroke="#FF6B00" stroke-width="1.223" stroke-miterlimit="10"/><path d="m552.459 355.12 167.477-46.421 23.058 83.188-167.477 46.422-23.058-83.189zM467.644 697.776l-19.09 5.291c-4.989-2.178-10.162-4.031-15.222-6.464-.65-.368-1.229-.481-1.879-.849l-6.065-21.878 33.089-9.172 9.167 33.072z" fill="#fff" stroke="#FF6B00" stroke-width="1.223" stroke-miterlimit="10"/><path d="m509.898 721.677 33.088-9.172-9.167-33.072-33.088 9.172-9.167-33.072 33.088-9.171-9.167-33.072-33.088 9.171-33.088 9.172-9.167-33.072 33.088-9.172-9.167-33.072-33.088 9.172 9.167 33.072-33.088 9.171-33.088 9.172-9.167-33.072-33.088 9.171-33.088 9.172 9.167 33.072 9.167 33.071-33.088 9.172-9.167-33.072-14.763 4.092-15.442-222.82s21.921-32.649 80.819-34.73c88.221-3.085 131.52 44.359 204.529 60.557 45.884 10.293 56.063-10.335 56.063-10.335l29.771 191.454s76.792-16.628 120.64 34.773c26.021 30.592-13.091 62.527-53.56 73.744-42.251 11.711-92.223 4.469-172.226-17.187l-.635-2.289z" fill="#fff" stroke="#FF6B00" stroke-width="1.223" stroke-miterlimit="10"/><path d="m509.899 721.677-4.072 1.128c-11.294-3.17-22.729-6.849-34.304-11.037l-3.879-13.992 33.088-9.171 9.167 33.072zM425.389 673.876l-32.325 8.959c-.254.071-.579-.113-.834-.042l-9.096-32.818 33.088-9.171 9.167 33.072zM355.405 678.481c-12.879.009-24.176 1.77-34.428 4.338l-4.019-14.501 33.088-9.171 5.359 19.334zM267.585 717.616l-2.546.706-2.549-34.906 21.38-5.926 5.359 19.334c-10.905 7.132-18.262 15.198-21.644 20.792z" fill="#fff" stroke="#FF6B00" stroke-width="1.223" stroke-miterlimit="10"/><path d="m340.879 626.075 33.088-9.172 9.167 33.072-33.088 9.172-9.167-33.072z" fill="#fff" stroke="#FF6B00" stroke-width="1.223" stroke-miterlimit="10"/><path d="m557.213 454.34 30.465 231.532s55.46-39.206 129.632-27.714l-41.315-222.223s-35.226-27.218-89.763 5.431c0 0-11.248 13.802-29.019 12.974z" fill="#262626"/><path d="m586.233 441.365-7.032-55.031s82.15-15.1 122.45 35.367l42.012 257.369s-4.329-16.607-53.984-31.607c-29.895-8.972-70.916 3.22-70.916 3.22l-32.53-209.318z" fill="#fff" stroke="#FF6B00" stroke-width="1.223" stroke-miterlimit="10"/><path d="M383.94 395.804s-32.01-16.604-72.538-2.631c-40.528 13.973-138.336 104.091-138.336 104.091l-3.073 174.807S289.368 570.77 328.691 562.336c37.47-8.195 69.41 8.155 69.41 8.155L383.94 395.804z" fill="#262626"/><path d="M352.725 352.407s-30.22-9.156-72.538-2.631c-38.105 5.905-138.336 104.091-138.336 104.091l-3.073 174.807s120.574-96.977 158.698-109.735c38.123-12.759 68.708.679 68.708.679l-13.459-167.211z" fill="#fff" stroke="#FF6B00" stroke-width="1.223" stroke-miterlimit="10"/><path d="m252.258 362.722.569 78.191-76.172 61.383.437-81.482 55.619-45.551 19.547-12.541z" fill="#262626"/><path d="m339.867 697.581 85.52-23.705 15.019 54.187-85.52 23.705-15.019-54.187z" fill="#fff" stroke="#FF6B00" stroke-width="1.223" stroke-miterlimit="10"/><path d="m418.5 705.671-.377-1.357-12.466-2.536.602 2.171 9.499 1.715-.106-.117.094.339.03-.155-7.26 6.361.601 2.171 9.383-8.592zm-24.656-6.172 11.362 19.246 1.832-.508-11.362-19.246-1.832.508zm-8.342 21.894.949-1.651-6.868-3.887 13.927-3.86-.517-1.866-13.927 3.86 3.891-6.851-1.668-.944-5.493 9.706 9.706 5.493zm-24.973.346 12.467 2.536-.602-2.171-9.499-1.715.105.117-.094-.339-.03.154 7.261-6.36-.602-2.171-9.382 8.592.376 1.357z" fill="#000"/><path d="m232.595 358.036.314 78.261-76.172 61.384.461-75.463 75.397-64.182zM341.951 293.756l-6.92-73.417 76.242-61.129 6.074 70.364-75.396 64.182z" fill="#fff" stroke="#262626" stroke-width="1.223" stroke-miterlimit="10"/><path d="M376.201 239.335c-4.78 1.325-9.727-1.474-11.052-6.251-1.324-4.777 1.477-9.723 6.257-11.048 4.779-1.325 9.727 1.474 11.051 6.251 1.324 4.777-1.477 9.724-6.256 11.048zM196.552 450.484l-.005 27.67-26.876 21.695.287-26.652 26.594-22.713zM294.03 491.677l.225 44.317-41.682 26.62.199-42.79 41.258-28.147z" fill="#fff" stroke="#262626" stroke-width="1.223" stroke-miterlimit="10"/><path d="M433.972 521.922c-18.414 5.104-37.478-5.679-42.58-24.084-5.102-18.406 5.691-37.464 24.105-42.569 18.415-5.104 37.479 5.679 42.58 24.085 5.102 18.405-5.69 37.464-24.105 42.568z" fill="#262626"/><path d="M425.204 507.094c-18.415 5.104-37.479-5.679-42.58-24.084-5.102-18.406 5.69-37.465 24.105-42.569 18.414-5.104 37.478 5.679 42.58 24.085 5.102 18.405-5.691 37.464-24.105 42.568z" fill="#fff" stroke="#262626" stroke-width="1.223" stroke-miterlimit="10"/><path d="m415.964 473.768 132.854-234.613" stroke="#FF6B00" stroke-width="1.223" stroke-miterlimit="10"/><path d="M562.716 261.601c-18.414 5.104-37.478-5.679-42.58-24.084-5.101-18.406 5.691-37.464 24.105-42.569 18.415-5.104 37.479 5.679 42.58 24.085 5.102 18.405-5.69 37.464-24.105 42.568z" fill="#fff" stroke="#FF6B00" stroke-width="1.223" stroke-miterlimit="10"/><path d="m540.748 196.191 5.621-13.338 32.433 40.869-24.575 46.807-6.031-7.916" stroke="#FF6B00" stroke-width="1.223" stroke-miterlimit="10"/><path d="m711.635 343.809-.481-1.735-15.937-3.241.769 2.775 12.144 2.192-.135-.149.12.433.039-.197-9.282 8.13.769 2.776 11.994-10.984zm-28.719 16.367.661 2.386 13.879-3.847-.661-2.386-13.879 3.847zm-13.806 3.827.662 2.385 13.878-3.847-.661-2.385-13.879 3.847zm-13.805 3.827.661 2.385 13.879-3.847-.661-2.385-13.879 3.847zm-16.606-20.43 14.525 24.602 2.343-.649-14.526-24.603-2.342.65zm-8.083 27.273.661 2.385 13.879-3.847-.661-2.385-13.879 3.847zm-19.179-3.091 15.937 3.242-.769-2.775-12.143-2.192.134.149-.12-.433-.038.197 9.282-8.13-.77-2.776-11.994 10.984.481 1.734z" fill="#000"/><path d="M418.393 478.574a6.338 6.338 0 0 1-7.801-4.413 6.337 6.337 0 0 1 4.417-7.798 6.337 6.337 0 0 1 7.801 4.412 6.338 6.338 0 0 1-4.417 7.799z" fill="#fff" stroke="#FF6B00" stroke-width="1.223" stroke-miterlimit="10"/><path d="m661.841 124.821 34.024-12.718-4.089-37.493 35.085-13.834 4.23 38.002L767.589 85.1l4.328 39.344-36.71 12.915-35.692 12.633 3.975 38.072-34.376 11.446 3.65 37.889-33.315 10.33-3.439-37.126-3.622-36.8 32.962-11.602-3.509-37.38z" fill="#666"/><path d="m658.219 88.021-3.877-36.73 33.671-13.99 3.763 37.31-33.557 13.41zM628.836 137.257l-3.482-36.291 32.865-12.945 3.622 36.801-33.005 12.435z" fill="#262626"/><path d="m593.947 113.233-3.27-35.528 31.196-13.03 3.482 36.291-31.408 12.267z" fill="#262626"/><path d="m597.288 149.016 31.548-11.759 3.553 36.546-31.945 11.32-30.672 10.967-3.27-35.528-3.199-35.274 30.644-12.055 3.341 35.783z" fill="#FF6B00"/><path d="m654.342 51.291-32.468 13.383-3.341-35.782-3.27-35.529 31.862-14.584 33.318-15.262L684.32.247l-33.53 14.498 3.552 36.546zM557.186 55.758l30.292-13.327 3.199 35.274-30.433 12.818-3.058-34.765zM533.93 136.991l-2.988-34.511 29.301-11.957 3.059 34.765-29.372 11.703z" fill="#262626"/><path d="m373.801 230.686 562.958 166.117" stroke="#FF6B00" stroke-width="1.223" stroke-miterlimit="10"/></g><defs><clipPath id="a"><path fill="#fff" transform="scale(-1 1) rotate(15.492 12.883 -3620.766)" d="M0 0h1003.13v769.271H0z"/></clipPath></defs></svg>