<svg width="147" height="410" fill="none" xmlns="http://www.w3.org/2000/svg"><g clip-path="url(#a)"><path d="m206.82 347.489 13.421-3.72-3.718-13.415-13.421 3.721-3.719-13.415 13.422-3.72-3.719-13.415-13.421 3.72-13.421 3.72-3.718-13.414 13.421-3.72-3.719-13.415-13.421 3.72 3.719 13.415-13.422 3.72-13.421 3.72-3.718-13.415-13.421 3.721-13.421 3.72 3.718 13.414 3.718 13.415-13.421 3.72-3.718-13.414-5.988 1.659-6.264-90.38s8.892-13.243 32.782-14.087c35.784-1.251 53.347 17.993 82.961 24.563 18.611 4.175 22.74-4.192 22.74-4.192l12.076 77.658s31.148-6.745 48.934 14.104c10.554 12.409-5.31 25.362-21.725 29.912-17.138 4.751-37.407 1.813-69.859-6.971l-.257-.929z" fill="#fff" stroke="#FF6B00" stroke-width=".496" stroke-miterlimit="10"/><path d="M144.156 329.967c-5.224.004-9.806.718-13.964 1.76l-1.631-5.882 13.421-3.72 2.174 7.842zM108.535 345.841l-1.032.286-1.035-14.158 8.673-2.404 2.173 7.842c-4.423 2.893-7.407 6.165-8.779 8.434z" fill="#fff" stroke="#FF6B00" stroke-width=".496" stroke-miterlimit="10"/><path d="m138.262 308.712 13.422-3.72 3.718 13.414-13.421 3.72-3.719-13.414z" fill="#fff" stroke="#FF6B00" stroke-width=".496" stroke-miterlimit="10"/><path d="M155.731 215.306s-12.984-6.735-29.422-1.067c-16.439 5.667-56.112 42.221-56.112 42.221l-1.247 70.905s48.421-41.089 64.371-44.51c15.199-3.324 28.154 3.307 28.154 3.307l-5.744-70.856z" fill="#262626"/><path d="M143.07 197.704s-12.258-3.714-29.423-1.067c-15.456 2.395-56.112 42.221-56.112 42.221l-1.246 70.906s48.907-39.336 64.371-44.511c15.463-5.175 27.869.275 27.869.275l-5.459-67.824z" fill="#fff" stroke="#FF6B00" stroke-width=".496" stroke-miterlimit="10"/><path d="m102.318 201.888.231 31.716-30.897 24.898.177-33.051 22.56-18.476 7.929-5.087z" fill="#262626"/><path d="m137.853 337.713 34.689-9.615 6.092 21.979-34.688 9.615-6.093-21.979z" fill="#fff" stroke="#FF6B00" stroke-width=".496" stroke-miterlimit="10"/><path d="m169.818 341.249-3.806 3.485-.244-.881 2.922-2.558-.016-.055-3.821-.689-.244-.881 5.056 1.029.153.55zm-10.001-2.503.743-.206 4.609 7.806-.743.206-4.609-7.806zm-3.383 8.88-3.937-2.228 2.228-3.937.676.383-1.578 2.779 5.649-1.566.21.757-5.649 1.566 2.785 1.577-.384.669zm-10.13.141-.153-.551 3.806-3.485.244.881-2.921 2.558.015.055 3.822.69.244.88-5.057-1.028z" fill="#000"/><path d="m94.342 199.989.127 31.744-30.897 24.899.187-30.609 30.583-26.034zM138.699 173.915l-2.807-29.78 30.925-24.795 2.464 28.541-30.582 26.034z" fill="#fff" stroke="#262626" stroke-width=".496" stroke-miterlimit="10"/><path d="M152.591 151.842a3.642 3.642 0 0 1-4.483-2.535 3.642 3.642 0 0 1 7.021-1.946 3.641 3.641 0 0 1-2.538 4.481zM79.72 237.489l-.001 11.223-10.902 8.8.117-10.81 10.787-9.213zM119.26 254.197l.091 17.976-16.907 10.798.081-17.357 16.735-11.417z" fill="#fff" stroke="#262626" stroke-width=".496" stroke-miterlimit="10"/></g><defs><clipPath id="a"><path fill="#fff" transform="scale(-1 1) rotate(15.492 -196.052 -1441.27)" d="M0 0h406.889v312.031H0z"/></clipPath></defs></svg>