<svg width="20" height="20" fill="none" xmlns="http://www.w3.org/2000/svg"><path d="M13.644 3.035c-3.488 0-6.355 2.827-6.355 6.345v9.93c0 .38.31.69.69.69h3.593c.38 0 .69-.31.69-.69V9.656c0-.758.622-1.379 1.382-1.379.76 0 1.382.62 1.382 1.38v9.655c0 .379.31.69.69.69h3.593c.38 0 .691-.311.691-.69V9.38a6.356 6.356 0 0 0-6.356-6.345zM2.487 0A2.475 2.475 0 0 0 0 2.483a2.475 2.475 0 0 0 2.487 2.483 2.475 2.475 0 0 0 2.487-2.483A2.475 2.475 0 0 0 2.487 0zM4.283 6.276H.691c-.38 0-.691.31-.691.69V19.31c0 .38.31.69.69.69h3.593c.38 0 .691-.31.691-.69V6.966c0-.38-.31-.69-.69-.69z" fill="#CFCFCF"/></svg>