<svg width="24" height="24" fill="none" xmlns="http://www.w3.org/2000/svg"><path fill-rule="evenodd" clip-rule="evenodd" d="M7.4 5h9.2c1.153 0 1.898.002 2.464.048.544.044.745.12.844.17a2 2 0 0 1 .874.874c.05.099.126.3.17.844.046.566.048 1.31.048 2.464v5.2c0 1.153-.002 1.898-.048 2.464-.044.544-.12.745-.17.844a2 2 0 0 1-.874.874c-.099.05-.3.126-.844.17-.566.046-1.31.048-2.464.048H7.4c-1.153 0-1.898-.002-2.464-.048-.544-.044-.745-.12-.844-.17a2 2 0 0 1-.874-.874c-.05-.099-.126-.3-.17-.844C3.002 16.498 3 15.754 3 14.6V9.4c0-1.153.002-1.898.048-2.464.044-.544.12-.745.17-.844a2 2 0 0 1 .874-.874c.099-.05.3-.126.844-.17C5.502 5.002 6.246 5 7.4 5zM1 9.4c0-2.24 0-3.36.436-4.216a4 4 0 0 1 1.748-1.748C4.04 3 5.16 3 7.4 3h9.2c2.24 0 3.36 0 4.216.436a4 4 0 0 1 1.748 1.748C23 6.04 23 7.16 23 9.4v5.2c0 2.24 0 3.36-.436 4.216a4 4 0 0 1-1.748 1.748C19.96 21 18.84 21 16.6 21H7.4c-2.24 0-3.36 0-4.216-.436a4 4 0 0 1-1.748-1.748C1 17.96 1 16.84 1 14.6V9.4zm5.555-2.232a1 1 0 0 0-1.11 1.664l6 4a1 1 0 0 0 1.11 0l6-4a1 1 0 0 0-1.11-1.664L12 10.798l-5.445-3.63z" fill="#fff"/></svg>