<svg width="15" height="20" fill="none" xmlns="http://www.w3.org/2000/svg"><path d="M6.548 20c4.696 0 7.619-3.46 7.619-7.926 0-1.683-.274-3.203-2.185-3.66.465-1.273 1.806-4.957 1.806-6.136 0-1.04-.625-1.91-1.739-1.91-1.776 0-3.367 5.144-3.866 6.37C7.798 5.625 5.991 0 4.398 0 3.161 0 2.58.894 2.58 2.02c0 1.378 1.36 4.953 1.854 6.328-.25-.09-.52-.169-.796-.169-.932 0-1.923 1.137-1.923 2.055 0 .348.195.836.318 1.16C.565 11.785 0 12.746 0 14.195-.004 17.015 2.72 20 6.548 20zm4.024-15.78c.16-.482.84-2.512 1.477-2.512.343 0 .434.347.434.625 0 .745-1.536 4.867-1.875 5.78L9.255 7.88l1.317-3.66zM3.83 1.887v-.001c0-.465.578-1.785 1.843 1.84L7.05 7.645c-.62-.05-1.102-.117-1.408.055C5.208 6.575 3.83 3.024 3.83 1.887zM3.738 9.53h.001c1.166 0 2.671 3.696 2.671 4.196 0 .199-.195.445-.422.445-.832 0-3.061-3.005-3.061-3.817.003-.3.505-.824.811-.824zm-1.34 3.058c.454 0 2.161 2.356 2.161 2.856 0 .192-.306.324-.465.324-.64 0-.892-.606-2.033-2.007-1.183 1.16.816 3.394 2.32 3.394 1.039 0 1.716-.945 1.513-1.641.148 0 .33.012.466-.023.044 1.058.362 2.32 1.66 2.41 0-.035.08-.278.08-.29 0-.68-.422-1.273-.422-1.964 0-1.106.864-2.176 1.74-2.801.318-.234.705-.38 1.078-.512.386-.144.796-.313 1.09-.602-.044-.437-.227-.824-.673-.824-1.102 0-4.8.157-4.8-1.55 0-.262.005-.512.694-.512 1.286 0 4.55.312 5.505 1.136.72.63.967 4.422-1.234 6.825h-.003c-1.158 1.25-2.64 1.899-4.367 1.899-2.364 0-4.231-1.274-5.13-3.45-.681-1.694.151-2.668.82-2.668zm4.751-.703c.388.122.785.157 1.184.235-.295.21-.557.469-.809.746-.111-.332-.247-.656-.375-.981z" fill="#CFCFCF"/></svg>