<svg width="20" height="20" fill="none" xmlns="http://www.w3.org/2000/svg"><path d="M19.759.394c-.334-.398-.9-.498-1.334-.199l-1.933 1.329c-.9-.963-2.167-1.495-3.533-1.495-2.7 0-4.934 2.193-4.934 4.917 0 .399.034.764.134 1.13-2.334-.499-3.734-2.193-4.267-5.25C3.825.428 3.525.13 3.125.03c-.366-.1-.766.066-1 .365-.066.067-5.566 7.708 2.4 14.186C3.76 16.208 1.46 17.604.56 18.07c-.434.2-.634.664-.534 1.13.1.464.5.763.967.763h1.733c10.134 0 14.734-5.016 14.834-16.245l2.1-1.994c.4-.332.433-.93.1-1.329z" fill="#CFCFCF"/></svg>