<svg width="586" height="354" fill="none" xmlns="http://www.w3.org/2000/svg"><g clip-path="url(#a)"><path d="M88.866 329.308h71.219v5.515H88.866v-5.515zM132.038 301.892s-9.138 8.036-20.955 4.412c-11.818-3.624-48.372-15.442-48.372-15.442l11.344-10.084s38.603 0 57.038-1.89l9.454 8.823-8.509 14.181z" fill="#fff" stroke="#262626" stroke-width=".788" stroke-miterlimit="10"/><path d="M85.085 194.906s-9.77 14.338 5.2 34.034c14.968 19.695 37.027 46.481 37.027 46.481s11.029 17.332 4.726 26.313l43.646-41.439-90.6-65.389z" fill="#fff" stroke="#262626" stroke-width=".788" stroke-miterlimit="10"/><path d="m244.854 184.822 90.442 102.574s28.361 33.088 17.332 51.996c-11.03 18.908-35.925 14.496-52.627 7.248C283.3 339.392 85.085 195.064 85.085 195.064L248.163 55.462l77.679 58.456-80.988 70.904z" fill="#fff" stroke="#262626" stroke-width=".788" stroke-miterlimit="10"/><path d="m198.688 147.322-34.979-20.798-51.05 44.905 33.246 25.841 52.783-49.948z" fill="#FF6B00" stroke="#262626" stroke-width=".788" stroke-miterlimit="10"/><path d="m220.117 147.322-86.975-59.244-52.784 46.481 86.975 62.711 52.784-49.948z" fill="#fff" stroke="#262626" stroke-width=".788" stroke-miterlimit="10"/><path d="m154.727 119.748-19.222 16.229 51.68 42.227 33.877-31.985-66.335-26.471zM318.437 328.363 171.43 210.032l33.088-32.93 113.919 151.261z" fill="#262626"/><path d="M371.062 278.257 189.234 66.334l-52.941 46.482 182.143 215.547 52.626-50.106z" fill="#fff" stroke="#262626" stroke-width=".788" stroke-miterlimit="10"/><path d="m248.163 117.7 114.234-92.805c2.363 24.422 12.763 49.16 12.763 49.16l111.239 104.937-38.288 33.246 2.521 2.049c18.278 18.277 0 40.336 0 40.336l-102.573 90.126c12.92-17.805-2.679-43.015-2.679-43.015L244.539 184.665c-29.622-35.767 3.624-66.965 3.624-66.965z" fill="#fff" stroke="#262626" stroke-width=".788" stroke-miterlimit="10"/><path d="M435.034 268.488s9.453-19.065-5.83-37.185c-15.126-18.12-152.994-127.311-152.994-127.311l18.592-18.435 156.146 128.887s15.283 15.126 3.939 34.034l-3.939 6.302-15.914 13.708z" fill="#FF6B00" stroke="#262626" stroke-width=".788" stroke-miterlimit="10"/><path d="M595.59 227.207s24.738 30.725 10.085 57.826c-14.654 27.101-51.524 14.023-55.62 10.556-4.255-3.308-210.505-172.532-210.505-172.532s-14.496-14.338-41.282-17.332c-30.883-3.466-50.105 12.133-50.105 12.133l114.233-92.805s35.137-19.38 78.309 7.878c43.173 27.258 169.539 128.257 169.539 128.257l-29.149 41.596s6.46 11.187 14.495 24.423z" fill="#fff" stroke="#262626" stroke-width=".788" stroke-miterlimit="10"/><mask id="b" style="mask-type:alpha" maskUnits="userSpaceOnUse" x="247" y="17" width="364" height="285"><path d="M595.546 226.834s24.737 30.725 10.084 57.826c-14.654 27.101-51.524 14.024-55.62 10.557-4.255-3.309-210.505-172.532-210.505-172.532s-14.496-14.338-41.282-17.332c-30.882-3.466-50.105 12.132-50.105 12.132L362.351 24.68s35.137-19.38 78.31 7.879c43.172 27.258 169.538 128.256 169.538 128.256l-29.149 41.597s6.46 11.187 14.496 24.422z" fill="#fff" stroke="#262626" stroke-width=".788" stroke-miterlimit="10"/></mask><g clip-path="url(#c)" mask="url(#b)"><path d="m453.707 96.054-40.775 3.579-7.143 42.053-42.263 4.473 7.143-42.649-43.751 3.877 7.143-44.14 43.751-2.983 42.56-2.983 7.143-42.649 40.775-2.088 7.441-42.351L515.017-31l-7.44 41.456-7.143 41.159-39.287 2.684-7.44 41.755z" fill="#666"/><path d="m446.564 137.212-6.845 41.158-40.775 5.07 6.846-41.754 40.774-4.474zM493.292 92.475l-7.143 40.562-39.585 4.175 7.143-41.158 39.585-3.58z" fill="#262626"/><path d="m523.946 129.159-7.143 39.667-37.798 4.772 7.143-40.562 37.798-3.877z" fill="#262626"/><path d="m531.09 89.194-37.799 3.28 7.143-40.86 38.096-2.683 36.608-2.685-7.143 39.667-7.441 39.369-36.608 3.877 7.144-39.965zM319.775 150.931l43.751-4.772-6.845 42.65 42.262-5.369-7.143 41.457-42.262 5.965-43.751 6.263 7.143-42.948-45.537 5.667-47.323 5.965 6.846-45.035 47.322-5.071 7.143-44.439 45.537-3.877-7.143 43.544z" fill="#FF6B00"/><path d="m233.761 115.44 7.143-45.632 47.322-3.28-6.845 44.736-47.62 4.176zM253.702 286.933l6.846-43.246 45.239-6.562-6.846 42.65-45.239 7.158zM439.718 178.37l39.287-4.772-7.143 39.966-7.143 39.667-39.287 6.263-40.477 6.561 6.845-41.158 40.775-5.667 7.143-40.86zM546.566 202.827l-36.906 5.368 7.143-39.369 36.608-4.772-6.845 38.773zM596.269 121.405l-7.143 38.474-35.715 4.175 7.143-38.772 35.715-3.877zM288.227 66.527l7.143-45.035 45.834-2.386-7.143 44.14-45.834 3.281z" fill="#262626"/></g><path d="m581.883 221.219-26.786 27.259 44.906 43.645c0-.158 24.422-29.937-18.12-70.904z" fill="#262626"/><path d="m568.017 210.347 69.328-82.248s26.628 28.519 32.616 45.851c8.035 23.32-3.152 37.343-3.152 37.343l-66.807 80.672s11.503-8.666-1.26-42.227c-12.132-31.985-30.725-39.391-30.725-39.391z" fill="#fff" stroke="#262626" stroke-width=".788" stroke-miterlimit="10"/><path d="M347.743 100.053s-38.603-21.586-67.752-7.878l61.292-50.105 47.112 9.61-40.652 48.373z" fill="#262626"/><path d="M449.528 72.952 355.148.472l-62.395 54.99 94.538 76.576 62.237-59.086zM88.867 280.778l18.278 54.045H20.327L.474 280.778h88.393z" fill="#fff" stroke="#262626" stroke-width=".788" stroke-miterlimit="10"/><path d="M154.255 280.778s3.309-3.781-5.515-20.64c-8.823-17.017-33.246-39.707-33.246-39.707l-11.659-11.659 71.849 51.838-21.429 20.168z" fill="#262626"/><circle cx="12" cy="12" r="11.625" transform="matrix(-1 0 0 1 65.27 297)" fill="#fff" stroke="#262626" stroke-width=".75"/></g><defs><clipPath id="a"><path fill="#fff" transform="matrix(-1 0 0 1 673.27 0)" d="M0 0h673.269v353.1H0z"/></clipPath><clipPath id="c"><path fill="#fff" transform="matrix(1 0 0 -1 220.07 286.933)" d="M0 0h376.199v317.933H0z"/></clipPath></defs></svg>