<svg width="160" height="259" fill="none" xmlns="http://www.w3.org/2000/svg"><g clip-path="url(#a)"><path d="M65.106 241.266h52.178v4.04H65.106v-4.04zM96.736 221.18s-6.695 5.887-15.353 3.232c-8.658-2.655-35.44-11.313-35.44-11.313l8.312-7.388s28.282 0 41.788-1.385l6.927 6.464-6.234 10.39z" fill="#fff" stroke="#262626" stroke-width=".577" stroke-miterlimit="10"/><path d="M62.336 142.797s-7.157 10.505 3.81 24.935c10.966 14.43 27.127 34.054 27.127 34.054s8.081 12.699 3.463 19.279l31.977-30.361-66.377-47.907z" fill="#fff" stroke="#262626" stroke-width=".577" stroke-miterlimit="10"/><path d="m179.391 135.41 66.261 75.15s20.779 24.242 12.699 38.095c-8.081 13.852-26.32 10.62-38.557 5.31-12.236-5.31-157.458-111.052-157.458-111.052L181.815 40.634l56.911 42.828-59.335 51.948z" fill="#fff" stroke="#262626" stroke-width=".577" stroke-miterlimit="10"/><path d="m145.566 107.936-25.627-15.238-37.402 32.9 24.357 18.932 38.672-36.594z" fill="#FF6B00" stroke="#262626" stroke-width=".577" stroke-miterlimit="10"/><path d="M161.267 107.936 97.545 64.531 58.873 98.585l63.722 45.945 38.672-36.594z" fill="#fff" stroke="#262626" stroke-width=".577" stroke-miterlimit="10"/><path d="m113.359 87.733-14.083 11.89 37.864 30.938 24.819-23.434-48.6-19.394zM233.3 240.575 125.596 153.88l24.242-24.126L233.3 240.575z" fill="#262626"/><path d="M271.856 203.864 138.64 48.599 99.853 82.654 233.3 240.574l38.556-36.71z" fill="#fff" stroke="#262626" stroke-width=".577" stroke-miterlimit="10"/><path d="m181.815 86.232 83.693-67.994c1.732 17.893 9.351 36.017 9.351 36.017l81.499 76.882-28.051 24.358 1.847 1.501c13.391 13.39 0 29.552 0 29.552l-75.151 66.031c9.466-13.045-1.962-31.515-1.962-31.515l-73.881-85.771c-21.702-26.205 2.655-49.061 2.655-49.061zM65.107 205.712l13.391 39.595H14.891L.346 205.712h64.761z" fill="#fff" stroke="#262626" stroke-width=".577" stroke-miterlimit="10"/><path d="M113.013 205.712s2.424-2.771-4.04-15.123c-6.465-12.467-24.358-29.09-24.358-29.09l-8.542-8.543 52.64 37.979-15.7 14.777z" fill="#262626"/><circle cx="8.792" cy="8.792" r="8.517" transform="matrix(-1 0 0 1 47.82 217.596)" fill="#fff" stroke="#262626" stroke-width=".549"/></g><defs><clipPath id="a"><path fill="#fff" transform="matrix(-1 0 0 1 493.27 0)" d="M0 0h493.269v258.698H0z"/></clipPath></defs></svg>