<svg xmlns="http://www.w3.org/2000/svg" width="400" viewBox="0 0 300 300" height="400" version="1.0"><path fill="#fff" d="M-30-30h360v360H-30z"/><path fill="#5e17eb" d="M-30-30h360v360H-30z"/><path d="m59.719 164.25-6.531-21.281h-.172c.226 4.336.343 7.218.343 8.656v12.625h-5.125v-27.125h7.829l6.421 20.734h.11l6.797-20.734h7.843v27.125H71.86v-12.844c0-.601.008-1.3.032-2.094.02-.789.101-2.894.25-6.312h-.157l-7 21.25zM83.369 138.14c0-1.843 1.023-2.765 3.078-2.765 2.05 0 3.078.922 3.078 2.766 0 .875-.262 1.558-.781 2.046-.512.493-1.278.735-2.297.735-2.055 0-3.078-.926-3.078-2.781zm5.89 26.11h-5.656V143.5h5.656zM103.62 164.625c-6.462 0-9.688-3.547-9.688-10.64 0-3.52.879-6.212 2.64-8.079 1.758-1.863 4.274-2.797 7.547-2.797 2.406 0 4.555.477 6.453 1.422l-1.656 4.375a24.883 24.883 0 0 0-2.5-.875 8.025 8.025 0 0 0-2.297-.344c-2.937 0-4.406 2.09-4.406 6.266 0 4.055 1.469 6.078 4.406 6.078 1.094 0 2.102-.14 3.031-.422.926-.289 1.852-.75 2.782-1.375v4.844c-.918.586-1.844.984-2.782 1.203-.93.227-2.105.344-3.53.344zM126.31 143.11c.769 0 1.406.058 1.906.171l-.422 5.313c-.461-.125-1.016-.188-1.672-.188-1.805 0-3.211.465-4.219 1.39-1.011.93-1.515 2.227-1.515 3.891v10.563h-5.657V143.5h4.282l.843 3.5h.282a7.674 7.674 0 0 1 2.593-2.813 6.429 6.429 0 0 1 3.578-1.078zM136.5 153.844c0 2.054.331 3.605 1 4.656.675 1.055 1.773 1.578 3.296 1.578 1.508 0 2.594-.52 3.25-1.562.664-1.051 1-2.61 1-4.672 0-2.051-.336-3.586-1-4.61-.668-1.03-1.762-1.547-3.281-1.547-1.512 0-2.602.512-3.266 1.532-.668 1.011-1 2.554-1 4.625zm14.343 0c0 3.375-.89 6.015-2.672 7.922-1.781 1.906-4.265 2.859-7.453 2.859-1.992 0-3.746-.438-5.266-1.313-1.523-.875-2.695-2.125-3.515-3.75-.813-1.632-1.219-3.539-1.219-5.718 0-3.395.883-6.032 2.656-7.907 1.77-1.882 4.254-2.828 7.453-2.828 2 0 3.758.438 5.282 1.313 1.52.867 2.687 2.11 3.5 3.734.82 1.617 1.234 3.512 1.234 5.688zM160.444 164.25l-7.907-20.75h5.922l4 11.828c.446 1.492.727 2.906.844 4.25h.11c.062-1.187.335-2.601.828-4.25l4-11.828h5.906l-7.89 20.75zM185.712 147.14c-1.2 0-2.14.383-2.828 1.141-.68.762-1.063 1.84-1.157 3.235h7.938c-.031-1.395-.403-2.473-1.11-3.235-.699-.758-1.648-1.14-2.843-1.14zm.797 17.485c-3.344 0-5.961-.922-7.844-2.766-1.875-1.843-2.813-4.453-2.813-7.828 0-3.476.867-6.164 2.61-8.062 1.738-1.907 4.14-2.86 7.203-2.86 2.937 0 5.219.84 6.844 2.516 1.632 1.668 2.453 3.977 2.453 6.922v2.734h-13.375c.062 1.617.535 2.875 1.422 3.781.894.899 2.148 1.344 3.765 1.344 1.238 0 2.414-.129 3.531-.39 1.114-.258 2.282-.672 3.5-1.235v4.375c-.992.492-2.054.856-3.187 1.094-1.125.25-2.496.375-4.11.375zM211.143 143.11c.77 0 1.406.058 1.906.171l-.422 5.313c-.461-.125-1.016-.188-1.672-.188-1.805 0-3.21.465-4.219 1.39-1.011.93-1.515 2.227-1.515 3.891v10.563h-5.657V143.5h4.282l.843 3.5h.282a7.674 7.674 0 0 1 2.593-2.813 6.429 6.429 0 0 1 3.579-1.078zM231.286 158.094c0 2.125-.743 3.746-2.22 4.86-1.48 1.116-3.687 1.671-6.624 1.671-1.512 0-2.797-.105-3.86-.313a13.872 13.872 0 0 1-2.984-.89v-4.688c1.05.5 2.234.918 3.547 1.25 1.32.336 2.484.5 3.484.5 2.051 0 3.078-.593 3.078-1.78 0-.446-.136-.806-.406-1.079-.273-.281-.746-.598-1.422-.953a35.46 35.46 0 0 0-2.672-1.235c-1.593-.664-2.765-1.28-3.515-1.843-.742-.57-1.281-1.227-1.625-1.969-.344-.738-.516-1.645-.516-2.719 0-1.844.711-3.27 2.14-4.281 1.438-1.008 3.462-1.516 6.079-1.516 2.5 0 4.93.547 7.297 1.641l-1.703 4.078a30.649 30.649 0 0 0-2.922-1.094 9.204 9.204 0 0 0-2.766-.422c-1.668 0-2.5.45-2.5 1.344 0 .512.266.953.797 1.328.54.368 1.723.914 3.547 1.641 1.625.656 2.812 1.273 3.562 1.844.75.574 1.301 1.23 1.657 1.968.363.743.547 1.625.547 2.657zM244.295 147.14c-1.199 0-2.14.383-2.828 1.141-.68.762-1.062 1.84-1.156 3.235h7.937c-.03-1.395-.402-2.473-1.109-3.235-.7-.758-1.648-1.14-2.844-1.14zm.797 17.485c-3.344 0-5.96-.922-7.844-2.766-1.875-1.843-2.812-4.453-2.812-7.828 0-3.476.867-6.164 2.61-8.062 1.738-1.907 4.14-2.86 7.202-2.86 2.938 0 5.22.84 6.844 2.516 1.633 1.668 2.453 3.977 2.453 6.922v2.734H240.17c.063 1.617.535 2.875 1.422 3.781.895.899 2.149 1.344 3.766 1.344 1.238 0 2.414-.129 3.531-.39 1.113-.258 2.281-.672 3.5-1.235v4.375c-.992.492-2.055.856-3.187 1.094-1.125.25-2.497.375-4.11.375zm0 0" fill="#fff"/></svg>