<svg xmlns="http://www.w3.org/2000/svg" xmlns:xlink="http://www.w3.org/1999/xlink" width="400" zoomAndPan="magnify" viewBox="0 0 300 299.999988" height="400" preserveAspectRatio="xMidYMid meet" version="1.0"><defs><g/></defs><rect x="-30" width="360" fill="#ffffff" y="-29.999999" height="359.999986" fill-opacity="1"/><rect x="-30" width="360" fill="#5e17eb" y="-29.999999" height="359.999986" fill-opacity="1"/><g fill="#ffffff" fill-opacity="1"><g transform="translate(44.812502, 164.249987)"><g><path d="M 14.90625 0 L 8.375 -21.28125 L 8.203125 -21.28125 C 8.429688 -16.945312 8.546875 -14.0625 8.546875 -12.625 L 8.546875 0 L 3.421875 0 L 3.421875 -27.125 L 11.25 -27.125 L 17.671875 -6.390625 L 17.78125 -6.390625 L 24.578125 -27.125 L 32.421875 -27.125 L 32.421875 0 L 27.046875 0 L 27.046875 -12.84375 C 27.046875 -13.445312 27.054688 -14.144531 27.078125 -14.9375 C 27.097656 -15.726562 27.179688 -17.832031 27.328125 -21.25 L 27.171875 -21.25 L 20.171875 0 Z M 14.90625 0 "/></g></g></g><g fill="#ffffff" fill-opacity="1"><g transform="translate(80.634235, 164.249987)"><g><path d="M 2.734375 -26.109375 C 2.734375 -27.953125 3.757812 -28.875 5.8125 -28.875 C 7.863281 -28.875 8.890625 -27.953125 8.890625 -26.109375 C 8.890625 -25.234375 8.628906 -24.550781 8.109375 -24.0625 C 7.597656 -23.570312 6.832031 -23.328125 5.8125 -23.328125 C 3.757812 -23.328125 2.734375 -24.253906 2.734375 -26.109375 Z M 8.625 0 L 2.96875 0 L 2.96875 -20.75 L 8.625 -20.75 Z M 8.625 0 "/></g></g></g><g fill="#ffffff" fill-opacity="1"><g transform="translate(92.228529, 164.249987)"><g><path d="M 11.390625 0.375 C 4.929688 0.375 1.703125 -3.171875 1.703125 -10.265625 C 1.703125 -13.785156 2.582031 -16.476562 4.34375 -18.34375 C 6.101562 -20.207031 8.617188 -21.140625 11.890625 -21.140625 C 14.296875 -21.140625 16.445312 -20.664062 18.34375 -19.71875 L 16.6875 -15.34375 C 15.789062 -15.707031 14.957031 -16 14.1875 -16.21875 C 13.425781 -16.445312 12.660156 -16.5625 11.890625 -16.5625 C 8.953125 -16.5625 7.484375 -14.472656 7.484375 -10.296875 C 7.484375 -6.242188 8.953125 -4.21875 11.890625 -4.21875 C 12.984375 -4.21875 13.992188 -4.359375 14.921875 -4.640625 C 15.847656 -4.929688 16.773438 -5.390625 17.703125 -6.015625 L 17.703125 -1.171875 C 16.785156 -0.585938 15.859375 -0.1875 14.921875 0.03125 C 13.992188 0.257812 12.816406 0.375 11.390625 0.375 Z M 11.390625 0.375 "/></g></g></g><g fill="#ffffff" fill-opacity="1"><g transform="translate(111.762597, 164.249987)"><g><path d="M 14.546875 -21.140625 C 15.316406 -21.140625 15.953125 -21.082031 16.453125 -20.96875 L 16.03125 -15.65625 C 15.570312 -15.78125 15.015625 -15.84375 14.359375 -15.84375 C 12.554688 -15.84375 11.148438 -15.378906 10.140625 -14.453125 C 9.128906 -13.523438 8.625 -12.226562 8.625 -10.5625 L 8.625 0 L 2.96875 0 L 2.96875 -20.75 L 7.25 -20.75 L 8.09375 -17.25 L 8.375 -17.25 C 9.007812 -18.414062 9.875 -19.351562 10.96875 -20.0625 C 12.070312 -20.78125 13.265625 -21.140625 14.546875 -21.140625 Z M 14.546875 -21.140625 "/></g></g></g><g fill="#ffffff" fill-opacity="1"><g transform="translate(129.014907, 164.249987)"><g><path d="M 7.484375 -10.40625 C 7.484375 -8.351562 7.816406 -6.800781 8.484375 -5.75 C 9.160156 -4.695312 10.257812 -4.171875 11.78125 -4.171875 C 13.289062 -4.171875 14.375 -4.691406 15.03125 -5.734375 C 15.695312 -6.785156 16.03125 -8.34375 16.03125 -10.40625 C 16.03125 -12.457031 15.695312 -13.992188 15.03125 -15.015625 C 14.363281 -16.046875 13.269531 -16.5625 11.75 -16.5625 C 10.238281 -16.5625 9.148438 -16.050781 8.484375 -15.03125 C 7.816406 -14.019531 7.484375 -12.476562 7.484375 -10.40625 Z M 21.828125 -10.40625 C 21.828125 -7.03125 20.9375 -4.390625 19.15625 -2.484375 C 17.375 -0.578125 14.890625 0.375 11.703125 0.375 C 9.710938 0.375 7.957031 -0.0625 6.4375 -0.9375 C 4.914062 -1.8125 3.742188 -3.0625 2.921875 -4.6875 C 2.109375 -6.320312 1.703125 -8.226562 1.703125 -10.40625 C 1.703125 -13.800781 2.585938 -16.4375 4.359375 -18.3125 C 6.128906 -20.195312 8.613281 -21.140625 11.8125 -21.140625 C 13.8125 -21.140625 15.570312 -20.703125 17.09375 -19.828125 C 18.613281 -18.960938 19.78125 -17.71875 20.59375 -16.09375 C 21.414062 -14.476562 21.828125 -12.582031 21.828125 -10.40625 Z M 21.828125 -10.40625 "/></g></g></g><g fill="#ffffff" fill-opacity="1"><g transform="translate(152.537411, 164.249987)"><g><path d="M 7.90625 0 L 0 -20.75 L 5.921875 -20.75 L 9.921875 -8.921875 C 10.367188 -7.429688 10.648438 -6.015625 10.765625 -4.671875 L 10.875 -4.671875 C 10.9375 -5.859375 11.210938 -7.273438 11.703125 -8.921875 L 15.703125 -20.75 L 21.609375 -20.75 L 13.71875 0 Z M 7.90625 0 "/></g></g></g><g fill="#ffffff" fill-opacity="1"><g transform="translate(174.149176, 164.249987)"><g><path d="M 11.5625 -17.109375 C 10.363281 -17.109375 9.421875 -16.726562 8.734375 -15.96875 C 8.054688 -15.207031 7.671875 -14.128906 7.578125 -12.734375 L 15.515625 -12.734375 C 15.484375 -14.128906 15.113281 -15.207031 14.40625 -15.96875 C 13.707031 -16.726562 12.757812 -17.109375 11.5625 -17.109375 Z M 12.359375 0.375 C 9.015625 0.375 6.398438 -0.546875 4.515625 -2.390625 C 2.640625 -4.234375 1.703125 -6.84375 1.703125 -10.21875 C 1.703125 -13.695312 2.570312 -16.382812 4.3125 -18.28125 C 6.050781 -20.1875 8.453125 -21.140625 11.515625 -21.140625 C 14.453125 -21.140625 16.734375 -20.300781 18.359375 -18.625 C 19.992188 -16.957031 20.8125 -14.648438 20.8125 -11.703125 L 20.8125 -8.96875 L 7.4375 -8.96875 C 7.5 -7.351562 7.972656 -6.09375 8.859375 -5.1875 C 9.753906 -4.289062 11.007812 -3.84375 12.625 -3.84375 C 13.863281 -3.84375 15.039062 -3.972656 16.15625 -4.234375 C 17.269531 -4.492188 18.4375 -4.90625 19.65625 -5.46875 L 19.65625 -1.09375 C 18.664062 -0.601562 17.601562 -0.238281 16.46875 0 C 15.34375 0.25 13.972656 0.375 12.359375 0.375 Z M 12.359375 0.375 "/></g></g></g><g fill="#ffffff" fill-opacity="1"><g transform="translate(196.59573, 164.249987)"><g><path d="M 14.546875 -21.140625 C 15.316406 -21.140625 15.953125 -21.082031 16.453125 -20.96875 L 16.03125 -15.65625 C 15.570312 -15.78125 15.015625 -15.84375 14.359375 -15.84375 C 12.554688 -15.84375 11.148438 -15.378906 10.140625 -14.453125 C 9.128906 -13.523438 8.625 -12.226562 8.625 -10.5625 L 8.625 0 L 2.96875 0 L 2.96875 -20.75 L 7.25 -20.75 L 8.09375 -17.25 L 8.375 -17.25 C 9.007812 -18.414062 9.875 -19.351562 10.96875 -20.0625 C 12.070312 -20.78125 13.265625 -21.140625 14.546875 -21.140625 Z M 14.546875 -21.140625 "/></g></g></g><g fill="#ffffff" fill-opacity="1"><g transform="translate(213.84804, 164.249987)"><g><path d="M 17.4375 -6.15625 C 17.4375 -4.03125 16.695312 -2.410156 15.21875 -1.296875 C 13.738281 -0.179688 11.53125 0.375 8.59375 0.375 C 7.082031 0.375 5.796875 0.269531 4.734375 0.0625 C 3.671875 -0.132812 2.675781 -0.429688 1.75 -0.828125 L 1.75 -5.515625 C 2.800781 -5.015625 3.984375 -4.597656 5.296875 -4.265625 C 6.617188 -3.929688 7.78125 -3.765625 8.78125 -3.765625 C 10.832031 -3.765625 11.859375 -4.359375 11.859375 -5.546875 C 11.859375 -5.992188 11.722656 -6.351562 11.453125 -6.625 C 11.179688 -6.90625 10.707031 -7.222656 10.03125 -7.578125 C 9.363281 -7.929688 8.472656 -8.34375 7.359375 -8.8125 C 5.765625 -9.476562 4.59375 -10.09375 3.84375 -10.65625 C 3.101562 -11.226562 2.5625 -11.882812 2.21875 -12.625 C 1.875 -13.363281 1.703125 -14.269531 1.703125 -15.34375 C 1.703125 -17.1875 2.414062 -18.613281 3.84375 -19.625 C 5.28125 -20.632812 7.304688 -21.140625 9.921875 -21.140625 C 12.421875 -21.140625 14.851562 -20.59375 17.21875 -19.5 L 15.515625 -15.421875 C 14.472656 -15.867188 13.5 -16.234375 12.59375 -16.515625 C 11.695312 -16.796875 10.773438 -16.9375 9.828125 -16.9375 C 8.160156 -16.9375 7.328125 -16.488281 7.328125 -15.59375 C 7.328125 -15.082031 7.59375 -14.640625 8.125 -14.265625 C 8.664062 -13.898438 9.847656 -13.351562 11.671875 -12.625 C 13.296875 -11.96875 14.484375 -11.351562 15.234375 -10.78125 C 15.984375 -10.207031 16.535156 -9.550781 16.890625 -8.8125 C 17.253906 -8.070312 17.4375 -7.1875 17.4375 -6.15625 Z M 17.4375 -6.15625 "/></g></g></g><g fill="#ffffff" fill-opacity="1"><g transform="translate(232.732827, 164.249987)"><g><path d="M 11.5625 -17.109375 C 10.363281 -17.109375 9.421875 -16.726562 8.734375 -15.96875 C 8.054688 -15.207031 7.671875 -14.128906 7.578125 -12.734375 L 15.515625 -12.734375 C 15.484375 -14.128906 15.113281 -15.207031 14.40625 -15.96875 C 13.707031 -16.726562 12.757812 -17.109375 11.5625 -17.109375 Z M 12.359375 0.375 C 9.015625 0.375 6.398438 -0.546875 4.515625 -2.390625 C 2.640625 -4.234375 1.703125 -6.84375 1.703125 -10.21875 C 1.703125 -13.695312 2.570312 -16.382812 4.3125 -18.28125 C 6.050781 -20.1875 8.453125 -21.140625 11.515625 -21.140625 C 14.453125 -21.140625 16.734375 -20.300781 18.359375 -18.625 C 19.992188 -16.957031 20.8125 -14.648438 20.8125 -11.703125 L 20.8125 -8.96875 L 7.4375 -8.96875 C 7.5 -7.351562 7.972656 -6.09375 8.859375 -5.1875 C 9.753906 -4.289062 11.007812 -3.84375 12.625 -3.84375 C 13.863281 -3.84375 15.039062 -3.972656 16.15625 -4.234375 C 17.269531 -4.492188 18.4375 -4.90625 19.65625 -5.46875 L 19.65625 -1.09375 C 18.664062 -0.601562 17.601562 -0.238281 16.46875 0 C 15.34375 0.25 13.972656 0.375 12.359375 0.375 Z M 12.359375 0.375 "/></g></g></g></svg>