<svg xmlns="http://www.w3.org/2000/svg" width="400" viewBox="0 0 300 300" height="400" version="1.0"><path fill="#fff" d="M-30-30h360v360H-30z"/><path fill="#001c42" d="M-30-30h360v360H-30z"/><path d="M69.85 160.351H64.1v-22.343h-7.36v-4.782h20.484v4.782H69.85zM89.538 143.242c-1.2 0-2.14.383-2.828 1.14-.68.762-1.063 1.84-1.156 3.235h7.937c-.031-1.395-.402-2.473-1.11-3.234-.698-.758-1.648-1.141-2.843-1.141zm.797 17.484c-3.344 0-5.961-.922-7.844-2.765-1.875-1.844-2.812-4.453-2.812-7.828 0-3.477.867-6.164 2.609-8.063 1.738-1.906 4.14-2.86 7.203-2.86 2.938 0 5.219.84 6.844 2.516 1.633 1.668 2.453 3.977 2.453 6.922v2.735H85.413c.063 1.617.535 2.875 1.422 3.78.894.9 2.148 1.345 3.766 1.345 1.238 0 2.414-.13 3.53-.391 1.114-.258 2.282-.672 3.5-1.234v4.375c-.991.492-2.054.855-3.187 1.093-1.125.25-2.496.375-4.11.375zM111.813 160.726c-6.461 0-9.688-3.547-9.688-10.64 0-3.52.88-6.211 2.64-8.078 1.759-1.864 4.274-2.797 7.548-2.797 2.406 0 4.554.476 6.453 1.422l-1.656 4.375a24.883 24.883 0 0 0-2.5-.875 8.025 8.025 0 0 0-2.297-.344c-2.938 0-4.407 2.09-4.407 6.265 0 4.055 1.47 6.079 4.407 6.079 1.093 0 2.101-.141 3.03-.422.927-.29 1.852-.75 2.782-1.375v4.843c-.918.586-1.844.985-2.781 1.204-.93.226-2.106.343-3.531.343zM142.081 160.351h-5.672v-12.109c0-3-1.11-4.5-3.328-4.5-1.586 0-2.73.543-3.437 1.625-.711 1.074-1.063 2.812-1.063 5.219v9.765h-5.656v-28.875h5.656v5.891c0 .46-.043 1.531-.125 3.219l-.125 1.672h.297c1.258-2.032 3.258-3.047 6-3.047 2.438 0 4.285.656 5.547 1.968 1.27 1.313 1.906 3.196 1.906 5.641zM144.926 139.601h6.203l3.906 11.672c.332 1.024.562 2.227.687 3.61h.11a15.59 15.59 0 0 1 .797-3.61l3.843-11.672h6.063l-8.766 23.407c-.804 2.164-1.953 3.785-3.453 4.859-1.492 1.07-3.23 1.61-5.219 1.61-.98 0-1.937-.106-2.875-.313v-4.485a9.933 9.933 0 0 0 2.235.235c1 0 1.875-.309 2.625-.922.75-.605 1.332-1.527 1.75-2.766l.328-1.03zm0 0" fill="#fff"/><path d="M196.384 164.25h-6.562L186.15 150c-.137-.508-.371-1.555-.703-3.14-.324-1.594-.512-2.66-.563-3.204-.074.668-.261 1.742-.562 3.219-.293 1.48-.516 2.531-.672 3.156l-3.656 14.219h-6.532l-6.921-27.125h5.656l3.469 14.797c.601 2.742 1.046 5.11 1.328 7.11.07-.696.238-1.786.5-3.266.27-1.477.52-2.63.75-3.454l3.953-15.187h5.437l3.953 15.187c.176.688.395 1.731.657 3.125.258 1.399.457 2.594.593 3.594.125-.957.32-2.156.594-3.594.27-1.445.516-2.617.735-3.515l3.453-14.797h5.656zM214.834 147.14c-1.2 0-2.14.383-2.828 1.141-.68.762-1.063 1.84-1.157 3.235h7.938c-.031-1.395-.402-2.473-1.11-3.235-.699-.758-1.648-1.14-2.843-1.14zm.797 17.485c-3.344 0-5.961-.922-7.844-2.766-1.875-1.843-2.813-4.453-2.813-7.828 0-3.476.868-6.164 2.61-8.062 1.738-1.907 4.14-2.86 7.203-2.86 2.937 0 5.219.84 6.844 2.516 1.632 1.668 2.453 3.977 2.453 6.922v2.734h-13.375c.062 1.617.535 2.875 1.422 3.781.894.899 2.148 1.344 3.765 1.344 1.239 0 2.414-.129 3.532-.39 1.113-.258 2.28-.672 3.5-1.235v4.375c-.993.492-2.055.856-3.188 1.094-1.125.25-2.496.375-4.11.375zm0 0" fill="#ff914d"/></svg>