<svg xmlns="http://www.w3.org/2000/svg" xmlns:xlink="http://www.w3.org/1999/xlink" width="400" zoomAndPan="magnify" viewBox="0 0 300 299.999988" height="400" preserveAspectRatio="xMidYMid meet" version="1.0"><defs><g/></defs><rect x="-30" width="360" fill="#ffffff" y="-29.999999" height="359.999986" fill-opacity="1"/><rect x="-30" width="360" fill="#001c42" y="-29.999999" height="359.999986" fill-opacity="1"/><g fill="#ffffff" fill-opacity="1"><g transform="translate(55.974172, 160.351372)"><g><path d="M 13.875 0 L 8.125 0 L 8.125 -22.34375 L 0.765625 -22.34375 L 0.765625 -27.125 L 21.25 -27.125 L 21.25 -22.34375 L 13.875 -22.34375 Z M 13.875 0 "/></g></g></g><g fill="#ffffff" fill-opacity="1"><g transform="translate(77.975506, 160.351372)"><g><path d="M 11.5625 -17.109375 C 10.363281 -17.109375 9.421875 -16.726562 8.734375 -15.96875 C 8.054688 -15.207031 7.671875 -14.128906 7.578125 -12.734375 L 15.515625 -12.734375 C 15.484375 -14.128906 15.113281 -15.207031 14.40625 -15.96875 C 13.707031 -16.726562 12.757812 -17.109375 11.5625 -17.109375 Z M 12.359375 0.375 C 9.015625 0.375 6.398438 -0.546875 4.515625 -2.390625 C 2.640625 -4.234375 1.703125 -6.84375 1.703125 -10.21875 C 1.703125 -13.695312 2.570312 -16.382812 4.3125 -18.28125 C 6.050781 -20.1875 8.453125 -21.140625 11.515625 -21.140625 C 14.453125 -21.140625 16.734375 -20.300781 18.359375 -18.625 C 19.992188 -16.957031 20.8125 -14.648438 20.8125 -11.703125 L 20.8125 -8.96875 L 7.4375 -8.96875 C 7.5 -7.351562 7.972656 -6.09375 8.859375 -5.1875 C 9.753906 -4.289062 11.007812 -3.84375 12.625 -3.84375 C 13.863281 -3.84375 15.039062 -3.972656 16.15625 -4.234375 C 17.269531 -4.492188 18.4375 -4.90625 19.65625 -5.46875 L 19.65625 -1.09375 C 18.664062 -0.601562 17.601562 -0.238281 16.46875 0 C 15.34375 0.25 13.972656 0.375 12.359375 0.375 Z M 12.359375 0.375 "/></g></g></g><g fill="#ffffff" fill-opacity="1"><g transform="translate(100.422059, 160.351372)"><g><path d="M 11.390625 0.375 C 4.929688 0.375 1.703125 -3.171875 1.703125 -10.265625 C 1.703125 -13.785156 2.582031 -16.476562 4.34375 -18.34375 C 6.101562 -20.207031 8.617188 -21.140625 11.890625 -21.140625 C 14.296875 -21.140625 16.445312 -20.664062 18.34375 -19.71875 L 16.6875 -15.34375 C 15.789062 -15.707031 14.957031 -16 14.1875 -16.21875 C 13.425781 -16.445312 12.660156 -16.5625 11.890625 -16.5625 C 8.953125 -16.5625 7.484375 -14.472656 7.484375 -10.296875 C 7.484375 -6.242188 8.953125 -4.21875 11.890625 -4.21875 C 12.984375 -4.21875 13.992188 -4.359375 14.921875 -4.640625 C 15.847656 -4.929688 16.773438 -5.390625 17.703125 -6.015625 L 17.703125 -1.171875 C 16.785156 -0.585938 15.859375 -0.1875 14.921875 0.03125 C 13.992188 0.257812 12.816406 0.375 11.390625 0.375 Z M 11.390625 0.375 "/></g></g></g><g fill="#ffffff" fill-opacity="1"><g transform="translate(119.956127, 160.351372)"><g><path d="M 22.125 0 L 16.453125 0 L 16.453125 -12.109375 C 16.453125 -15.109375 15.34375 -16.609375 13.125 -16.609375 C 11.539062 -16.609375 10.394531 -16.066406 9.6875 -14.984375 C 8.976562 -13.910156 8.625 -12.171875 8.625 -9.765625 L 8.625 0 L 2.96875 0 L 2.96875 -28.875 L 8.625 -28.875 L 8.625 -22.984375 C 8.625 -22.523438 8.582031 -21.453125 8.5 -19.765625 L 8.375 -18.09375 L 8.671875 -18.09375 C 9.929688 -20.125 11.929688 -21.140625 14.671875 -21.140625 C 17.109375 -21.140625 18.957031 -20.484375 20.21875 -19.171875 C 21.488281 -17.859375 22.125 -15.976562 22.125 -13.53125 Z M 22.125 0 "/></g></g></g><g fill="#ffffff" fill-opacity="1"><g transform="translate(144.925599, 160.351372)"><g><path d="M 0 -20.75 L 6.203125 -20.75 L 10.109375 -9.078125 C 10.441406 -8.054688 10.671875 -6.851562 10.796875 -5.46875 L 10.90625 -5.46875 C 11.039062 -6.75 11.304688 -7.953125 11.703125 -9.078125 L 15.546875 -20.75 L 21.609375 -20.75 L 12.84375 2.65625 C 12.039062 4.820312 10.890625 6.441406 9.390625 7.515625 C 7.898438 8.585938 6.160156 9.125 4.171875 9.125 C 3.191406 9.125 2.234375 9.019531 1.296875 8.8125 L 1.296875 4.328125 C 1.972656 4.484375 2.71875 4.5625 3.53125 4.5625 C 4.53125 4.5625 5.40625 4.253906 6.15625 3.640625 C 6.90625 3.035156 7.488281 2.113281 7.90625 0.875 L 8.234375 -0.15625 Z M 0 -20.75 "/></g></g></g><g fill="#ff914d" fill-opacity="1"><g transform="translate(166.540569, 164.249987)"><g><path d="M 29.84375 0 L 23.28125 0 L 19.609375 -14.25 C 19.472656 -14.757812 19.238281 -15.804688 18.90625 -17.390625 C 18.582031 -18.984375 18.394531 -20.050781 18.34375 -20.59375 C 18.269531 -19.925781 18.082031 -18.851562 17.78125 -17.375 C 17.488281 -15.894531 17.265625 -14.84375 17.109375 -14.21875 L 13.453125 0 L 6.921875 0 L 0 -27.125 L 5.65625 -27.125 L 9.125 -12.328125 C 9.726562 -9.585938 10.171875 -7.21875 10.453125 -5.21875 C 10.523438 -5.914062 10.691406 -7.003906 10.953125 -8.484375 C 11.222656 -9.960938 11.472656 -11.113281 11.703125 -11.9375 L 15.65625 -27.125 L 21.09375 -27.125 L 25.046875 -11.9375 C 25.222656 -11.25 25.441406 -10.207031 25.703125 -8.8125 C 25.960938 -7.414062 26.160156 -6.21875 26.296875 -5.21875 C 26.421875 -6.175781 26.617188 -7.375 26.890625 -8.8125 C 27.160156 -10.257812 27.40625 -11.429688 27.625 -12.328125 L 31.078125 -27.125 L 36.734375 -27.125 Z M 29.84375 0 "/></g></g></g><g fill="#ff914d" fill-opacity="1"><g transform="translate(203.271294, 164.249987)"><g><path d="M 11.5625 -17.109375 C 10.363281 -17.109375 9.421875 -16.726562 8.734375 -15.96875 C 8.054688 -15.207031 7.671875 -14.128906 7.578125 -12.734375 L 15.515625 -12.734375 C 15.484375 -14.128906 15.113281 -15.207031 14.40625 -15.96875 C 13.707031 -16.726562 12.757812 -17.109375 11.5625 -17.109375 Z M 12.359375 0.375 C 9.015625 0.375 6.398438 -0.546875 4.515625 -2.390625 C 2.640625 -4.234375 1.703125 -6.84375 1.703125 -10.21875 C 1.703125 -13.695312 2.570312 -16.382812 4.3125 -18.28125 C 6.050781 -20.1875 8.453125 -21.140625 11.515625 -21.140625 C 14.453125 -21.140625 16.734375 -20.300781 18.359375 -18.625 C 19.992188 -16.957031 20.8125 -14.648438 20.8125 -11.703125 L 20.8125 -8.96875 L 7.4375 -8.96875 C 7.5 -7.351562 7.972656 -6.09375 8.859375 -5.1875 C 9.753906 -4.289062 11.007812 -3.84375 12.625 -3.84375 C 13.863281 -3.84375 15.039062 -3.972656 16.15625 -4.234375 C 17.269531 -4.492188 18.4375 -4.90625 19.65625 -5.46875 L 19.65625 -1.09375 C 18.664062 -0.601562 17.601562 -0.238281 16.46875 0 C 15.34375 0.25 13.972656 0.375 12.359375 0.375 Z M 12.359375 0.375 "/></g></g></g></svg>