<svg xmlns="http://www.w3.org/2000/svg" xmlns:xlink="http://www.w3.org/1999/xlink" width="20" zoomAndPan="magnify" viewBox="0 0 75 74.999997" height="100" preserveAspectRatio="xMidYMid meet" version="1.0"><rect x="-7.5" width="90" fill="#ffffff" y="-7.5" height="89.999996" fill-opacity="1"/><rect x="-7.5" width="90" fill="#ffffff" y="-7.5" height="89.999996" fill-opacity="1"/><rect x="-7.5" width="90" fill="#ffffff" y="-7.5" height="89.999996" fill-opacity="1"/><path fill="#f44336" d="M 75 64.582031 C 75 70.335938 70.335938 75 64.582031 75 L 10.417969 75 C 4.664062 75 0 70.335938 0 64.582031 L 0 10.417969 C 0 4.664062 4.664062 0 10.417969 0 L 64.582031 0 C 70.335938 0 75 4.664062 75 10.417969 Z M 75 64.582031 " fill-opacity="1" fill-rule="nonzero"/><path fill="#ffffff" d="M 63.539062 40.621094 C 62.964844 38.574219 61.269531 36.957031 59.117188 36.410156 C 55.222656 35.417969 37.5 35.417969 37.5 35.417969 C 37.5 35.417969 19.777344 35.417969 15.882812 36.414062 C 13.730469 36.960938 12.035156 38.574219 11.460938 40.621094 C 10.417969 44.335938 10.417969 52.082031 10.417969 52.082031 C 10.417969 52.082031 10.417969 59.832031 11.460938 63.546875 C 12.035156 65.59375 13.730469 67.207031 15.882812 67.757812 C 19.777344 68.75 37.5 68.75 37.5 68.75 C 37.5 68.75 55.21875 68.75 59.117188 67.753906 C 61.269531 67.207031 62.964844 65.59375 63.539062 63.542969 C 64.582031 59.832031 64.582031 52.082031 64.582031 52.082031 C 64.582031 52.082031 64.582031 44.335938 63.539062 40.621094 Z M 63.539062 40.621094 " fill-opacity="1" fill-rule="nonzero"/><path fill="#f44336" d="M 21.527344 64.582031 L 18.054688 64.582031 L 18.054688 43.03125 L 14.582031 43.03125 L 14.582031 39.582031 L 25 39.582031 L 25 43.03125 L 21.527344 43.03125 Z M 35.417969 64.582031 L 32.292969 64.582031 L 31.945312 62.226562 C 30.574219 63.707031 28.941406 64.582031 27.671875 64.582031 C 26.5625 64.582031 25.78125 64.101562 25.398438 63.222656 C 25.171875 62.671875 25 61.847656 25 60.609375 L 25 44.792969 L 28.472656 44.792969 L 28.472656 60.953125 C 28.558594 61.453125 28.925781 61.640625 29.375 61.640625 C 30.070312 61.640625 31.179688 60.882812 31.945312 59.882812 L 31.945312 44.792969 L 35.417969 44.792969 Z M 60.417969 55.546875 L 60.417969 49.921875 C 60.417969 48.300781 60.015625 47.132812 59.304688 46.375 C 58.351562 45.339844 56.980469 44.792969 55.261719 44.792969 C 53.507812 44.792969 52.152344 45.339844 51.164062 46.375 C 50.417969 47.132812 50 48.371094 50 49.988281 L 50 59.558594 C 50 61.160156 50.46875 62.292969 51.199219 63.035156 C 52.1875 64.066406 53.542969 64.582031 55.347656 64.582031 C 57.136719 64.582031 58.542969 64.050781 59.480469 62.949219 C 59.894531 62.464844 60.171875 61.914062 60.296875 61.3125 C 60.3125 61.039062 60.417969 60.296875 60.417969 59.421875 L 56.945312 59.421875 L 56.945312 60.796875 C 56.945312 61.589844 56.164062 62.242188 55.207031 62.242188 C 54.253906 62.242188 53.472656 61.589844 53.472656 60.796875 L 53.472656 55.546875 Z M 53.472656 48.734375 C 53.472656 47.925781 54.253906 47.289062 55.207031 47.289062 C 56.164062 47.289062 56.945312 47.925781 56.945312 48.734375 L 56.945312 53.15625 L 53.472656 53.15625 Z M 47.464844 46.859375 C 47.03125 45.511719 45.972656 44.773438 44.652344 44.753906 C 42.96875 44.738281 42.273438 45.617188 40.972656 47.132812 L 40.972656 39.582031 L 37.5 39.582031 L 37.5 64.582031 L 40.625 64.582031 L 40.972656 62.429688 C 42.066406 63.773438 43.488281 64.582031 44.652344 64.582031 C 45.972656 64.582031 47.101562 63.894531 47.535156 62.546875 C 47.742188 61.824219 47.898438 61.152344 47.914062 59.632812 L 47.914062 50.582031 C 47.917969 48.878906 47.691406 47.582031 47.464844 46.859375 Z M 44.445312 59.1875 C 44.445312 60.996094 44.027344 61.617188 43.089844 61.617188 C 42.550781 61.617188 41.527344 61.257812 40.972656 60.703125 L 40.972656 48.859375 C 41.527344 48.304688 42.550781 47.773438 43.089844 47.773438 C 44.027344 47.773438 44.445312 48.339844 44.445312 50.152344 Z M 44.445312 59.1875 " fill-opacity="1" fill-rule="nonzero"/><path fill="#ffffff" d="M 18.75 6.25 L 22.574219 6.253906 L 25.046875 18.152344 L 25.285156 18.152344 L 27.636719 6.253906 L 31.503906 6.253906 L 27.082031 22.695312 L 27.082031 31.25 L 23.285156 31.25 L 23.277344 23.15625 Z M 31.539062 16.835938 C 31.539062 15.4375 31.996094 14.320312 32.910156 13.492188 C 33.820312 12.660156 35.042969 12.242188 36.582031 12.238281 C 37.988281 12.238281 39.136719 12.675781 40.03125 13.550781 C 40.925781 14.421875 41.375 15.550781 41.375 16.929688 L 41.382812 26.273438 C 41.382812 27.820312 40.945312 29.039062 40.070312 29.925781 C 39.191406 30.808594 37.988281 31.25 36.445312 31.25 C 34.957031 31.25 33.773438 30.789062 32.878906 29.882812 C 31.984375 28.976562 31.542969 27.753906 31.542969 26.214844 L 31.535156 16.835938 Z M 35.03125 26.554688 C 35.03125 27.046875 35.148438 27.433594 35.402344 27.707031 C 35.640625 27.972656 35.984375 28.109375 36.433594 28.109375 C 36.894531 28.109375 37.253906 27.972656 37.523438 27.691406 C 37.792969 27.421875 37.933594 27.035156 37.933594 26.550781 L 37.925781 16.695312 C 37.925781 16.300781 37.785156 15.980469 37.507812 15.738281 C 37.234375 15.496094 36.871094 15.371094 36.425781 15.371094 C 36.011719 15.371094 35.675781 15.496094 35.414062 15.738281 C 35.15625 15.984375 35.027344 16.304688 35.027344 16.695312 Z M 54.167969 12.5 L 54.167969 31.25 L 51.199219 31.25 L 50.726562 28.957031 C 50.089844 29.703125 49.429688 30.269531 48.738281 30.65625 C 48.054688 31.042969 47.390625 31.25 46.742188 31.25 C 45.945312 31.25 45.347656 30.976562 44.941406 30.429688 C 44.535156 29.890625 44.332031 29.074219 44.332031 27.984375 L 44.324219 12.5 L 47.769531 12.5 L 47.777344 26.71875 C 47.777344 27.144531 47.851562 27.457031 47.996094 27.652344 C 48.136719 27.839844 48.378906 27.945312 48.695312 27.945312 C 48.953125 27.945312 49.273438 27.816406 49.652344 27.558594 C 50.046875 27.304688 50.398438 26.972656 50.722656 26.578125 L 50.714844 12.5 Z M 54.167969 12.5 " fill-opacity="1" fill-rule="nonzero"/></svg>