<svg xmlns="http://www.w3.org/2000/svg" xmlns:xlink="http://www.w3.org/1999/xlink" width="1" zoomAndPan="magnify" viewBox="0 0 30 30.000001" height="1" preserveAspectRatio="xMidYMid meet" version="1.0"><defs><clipPath id="bd6e21d2b3"><path d="M 0.484375 0 L 29.515625 0 L 29.515625 29.03125 L 0.484375 29.03125 Z M 0.484375 0 " clip-rule="nonzero"/></clipPath></defs><g clip-path="url(#bd6e21d2b3)"><path fill="#f44336" d="M 29.515625 25 C 29.515625 27.226562 27.710938 29.03125 25.484375 29.03125 L 4.515625 29.03125 C 2.289062 29.03125 0.484375 27.226562 0.484375 25 L 0.484375 4.03125 C 0.484375 1.804688 2.289062 0 4.515625 0 L 25.484375 0 C 27.710938 0 29.515625 1.804688 29.515625 4.03125 Z M 29.515625 25 " fill-opacity="1" fill-rule="nonzero"/></g><path fill="#ffffff" d="M 25.078125 15.722656 C 24.855469 14.929688 24.203125 14.304688 23.367188 14.09375 C 21.859375 13.710938 15 13.710938 15 13.710938 C 15 13.710938 8.140625 13.710938 6.632812 14.09375 C 5.800781 14.308594 5.144531 14.929688 4.921875 15.726562 C 4.515625 17.160156 4.515625 20.160156 4.515625 20.160156 C 4.515625 20.160156 4.515625 23.160156 4.921875 24.597656 C 5.144531 25.390625 5.796875 26.015625 6.632812 26.226562 C 8.140625 26.613281 15 26.613281 15 26.613281 C 15 26.613281 21.859375 26.613281 23.367188 26.226562 C 24.199219 26.015625 24.855469 25.390625 25.078125 24.597656 C 25.484375 23.160156 25.484375 20.160156 25.484375 20.160156 C 25.484375 20.160156 25.484375 17.160156 25.078125 15.722656 Z M 25.078125 15.722656 " fill-opacity="1" fill-rule="nonzero"/><path fill="#f44336" d="M 8.816406 25 L 7.472656 25 L 7.472656 16.65625 L 6.128906 16.65625 L 6.128906 15.324219 L 10.160156 15.324219 L 10.160156 16.65625 L 8.816406 16.65625 Z M 14.195312 25 L 12.984375 25 L 12.847656 24.085938 C 12.320312 24.660156 11.6875 25 11.195312 25 C 10.765625 25 10.464844 24.8125 10.316406 24.472656 C 10.226562 24.261719 10.160156 23.941406 10.160156 23.460938 L 10.160156 17.339844 L 11.503906 17.339844 L 11.503906 23.59375 C 11.539062 23.789062 11.679688 23.859375 11.855469 23.859375 C 12.125 23.859375 12.554688 23.566406 12.847656 23.179688 L 12.847656 17.339844 L 14.195312 17.339844 Z M 23.871094 21.503906 L 23.871094 19.324219 C 23.871094 18.699219 23.714844 18.246094 23.441406 17.953125 C 23.070312 17.550781 22.539062 17.339844 21.875 17.339844 C 21.195312 17.339844 20.671875 17.550781 20.289062 17.953125 C 20 18.246094 19.839844 18.722656 19.839844 19.351562 L 19.839844 23.054688 C 19.839844 23.675781 20.019531 24.113281 20.300781 24.402344 C 20.683594 24.800781 21.210938 25 21.910156 25 C 22.601562 25 23.144531 24.792969 23.507812 24.367188 C 23.667969 24.179688 23.777344 23.96875 23.824219 23.734375 C 23.832031 23.628906 23.871094 23.339844 23.871094 23 L 22.527344 23 L 22.527344 23.535156 C 22.527344 23.839844 22.222656 24.09375 21.855469 24.09375 C 21.484375 24.09375 21.183594 23.839844 21.183594 23.535156 L 21.183594 21.503906 Z M 21.183594 18.863281 C 21.183594 18.550781 21.484375 18.304688 21.855469 18.304688 C 22.222656 18.304688 22.527344 18.550781 22.527344 18.863281 L 22.527344 20.578125 L 21.183594 20.578125 Z M 18.855469 18.140625 C 18.691406 17.617188 18.277344 17.332031 17.769531 17.324219 C 17.117188 17.316406 16.847656 17.65625 16.34375 18.246094 L 16.34375 15.324219 L 15 15.324219 L 15 25 L 16.210938 25 L 16.34375 24.167969 C 16.769531 24.6875 17.320312 25 17.769531 25 C 18.277344 25 18.714844 24.734375 18.882812 24.210938 C 18.964844 23.929688 19.023438 23.671875 19.03125 23.082031 L 19.03125 19.582031 C 19.03125 18.921875 18.945312 18.417969 18.855469 18.140625 Z M 17.6875 22.910156 C 17.6875 23.613281 17.527344 23.851562 17.164062 23.851562 C 16.957031 23.851562 16.558594 23.710938 16.34375 23.5 L 16.34375 18.914062 C 16.558594 18.699219 16.953125 18.492188 17.164062 18.492188 C 17.527344 18.492188 17.6875 18.714844 17.6875 19.414062 Z M 17.6875 22.910156 " fill-opacity="1" fill-rule="nonzero"/><path fill="#ffffff" d="M 7.742188 2.417969 L 9.222656 2.421875 L 10.179688 7.027344 L 10.273438 7.027344 L 11.179688 2.421875 L 12.679688 2.421875 L 10.96875 8.785156 L 10.96875 12.097656 L 9.496094 12.097656 L 9.496094 8.964844 Z M 12.691406 6.519531 C 12.691406 5.976562 12.871094 5.542969 13.222656 5.222656 C 13.574219 4.902344 14.046875 4.738281 14.644531 4.738281 C 15.191406 4.738281 15.632812 4.90625 15.980469 5.246094 C 16.324219 5.582031 16.5 6.019531 16.5 6.554688 L 16.503906 10.171875 C 16.503906 10.769531 16.332031 11.242188 15.996094 11.582031 C 15.65625 11.925781 15.1875 12.097656 14.589844 12.097656 C 14.015625 12.097656 13.558594 11.917969 13.210938 11.566406 C 12.867188 11.21875 12.695312 10.742188 12.695312 10.148438 L 12.691406 6.515625 Z M 14.042969 10.277344 C 14.042969 10.46875 14.089844 10.621094 14.1875 10.726562 C 14.28125 10.828125 14.414062 10.878906 14.585938 10.878906 C 14.765625 10.878906 14.90625 10.828125 15.007812 10.71875 C 15.113281 10.613281 15.167969 10.464844 15.167969 10.277344 L 15.164062 6.460938 C 15.164062 6.308594 15.109375 6.1875 15.003906 6.09375 C 14.898438 6 14.757812 5.949219 14.585938 5.949219 C 14.425781 5.949219 14.292969 6 14.191406 6.09375 C 14.09375 6.1875 14.042969 6.3125 14.042969 6.464844 Z M 21.453125 4.839844 L 21.453125 12.097656 L 20.300781 12.097656 L 20.121094 11.210938 C 19.875 11.5 19.617188 11.71875 19.351562 11.867188 C 19.085938 12.015625 18.828125 12.097656 18.578125 12.097656 C 18.269531 12.097656 18.035156 11.992188 17.878906 11.777344 C 17.722656 11.570312 17.644531 11.253906 17.644531 10.832031 L 17.640625 4.839844 L 18.976562 4.839844 L 18.976562 10.34375 C 18.976562 10.507812 19.007812 10.628906 19.0625 10.703125 C 19.117188 10.777344 19.210938 10.816406 19.332031 10.816406 C 19.433594 10.816406 19.558594 10.769531 19.703125 10.667969 C 19.855469 10.570312 19.992188 10.441406 20.117188 10.289062 L 20.117188 4.839844 Z M 21.453125 4.839844 " fill-opacity="1" fill-rule="nonzero"/></svg>