<svg xmlns="http://www.w3.org/2000/svg" xmlns:xlink="http://www.w3.org/1999/xlink" viewBox="0 0 81 58" fill="#fff" fill-rule="evenodd" stroke="#000" stroke-linecap="round" stroke-linejoin="round"><use xlink:href="#A" x=".5" y=".5"/><symbol id="A" overflow="visible"><g stroke="none" fill-rule="nonzero"><path d="M78.235 8.773c-.934-3.451-3.63-6.147-7.08-7.08C64.946 0 39.96 0 39.96 0S14.973.051 8.765 1.744c-3.451.934-6.147 3.629-7.08 7.08-1.878 11.031-2.606 27.839.051 38.429.934 3.451 3.63 6.147 7.08 7.08 6.208 1.693 31.195 1.693 31.195 1.693s24.986 0 31.195-1.693c3.451-.934 6.147-3.63 7.08-7.08 1.98-11.046 2.591-27.844-.051-38.48z" fill="red"/><path d="M32.007 40.02l20.728-12.006-20.728-12.006z"/></g></symbol></svg>